:FULLY-SPECIFIED
:FORCE-ALL-JOINTS-BE-3DOF
:DEGREES
388
root 9.64605 17.0279 18.5803 6.94972 3.32939 -2.21947
lfemur -33.6543 5.0748 -19.3197
ltibia 52.7198 -0 0
lfoot -10.0139 10.1793 -0.0792428
ltoes -1.86791 0 0
rfemur -7.43387 3.75253 26.3968
rtibia 30.9482 -0 0
rfoot -7.3267 4.02911 0.387349
rtoes -15.5262 0 0
lowerback -6.45812 0.519229 -0.558939
upperback -1.47367 0.678597 2.20541
thorax 2.0741 0.33294 2.64545
lowerneck -19.2531 -6.21576 -13.9089
upperneck 21.1395 -8.03137 13.9317
head 11.2106 -3.1996 6.21199
lclavicle 1.26662e-14 -1.31035e-14 -1.33602e-31
lhumerus -45.1466 -14.2067 95.2209
lradius 25.6408 -0 0
lwrist 6.38678 0 0
lhand -12.0725 -22.5056 -0.00836688
lfingers 7.12502 -0 0
lthumb 13.9856 6.98197 -0.0132118
rclavicle 1.26662e-14 -1.31035e-14 -1.33602e-31
rhumerus -37.6508 14.6993 -86.4845
rradius 38.7522 -0 0
rwrist -19.5887 0 0
rhand -28.7037 -28.0323 -0.0331794
rfingers 7.12502 -0 0
rthumb -2.06547 -57.9952 -0.0322248
389
root 9.66289 17.0263 18.7277 6.97583 3.22222 -2.20327
lfemur -33.7973 5.01105 -19.4073
ltibia 52.2685 -0 0
lfoot -9.8487 10.1138 -0.080942
ltoes -1.68985 0 0
rfemur -6.9916 3.64617 26.2967
rtibia 30.9488 -0 0
rfoot -6.80753 4.13127 0.3957
rtoes -15.5998 0 0
lowerback -6.48788 0.57281 -0.568187
upperback -1.50128 0.751451 2.18076
thorax 2.05893 0.369604 2.63125
lowerneck -19.2428 -6.22446 -13.9234
upperneck 21.1654 -8.03964 13.9177
head 11.2195 -3.2065 6.20873
lclavicle 1.27227e-14 -1.27809e-14 -1.36465e-31
lhumerus -45.1743 -13.937 95.0688
lradius 25.4915 -0 0
lwrist 6.11233 0 0
lhand -11.9716 -22.5169 -0.00854621
lfingers 7.12502 -0 0
lthumb 14.0829 6.96344 -0.013495
rclavicle 1.27227e-14 -1.27809e-14 -1.36465e-31
rhumerus -37.7355 14.5525 -86.5614
rradius 38.5507 -0 0
rwrist -19.4326 0 0
rhand -28.6425 -28.1062 -0.0338905
rfingers 7.12502 -0 0
rthumb -2.00634 -58.0695 -0.0329155
390
root 9.67972 17.0248 18.8752 7.00191 3.11505 -2.18712
lfemur -33.9402 4.94707 -19.4947
ltibia 51.8171 -0 0
lfoot -9.68353 10.0483 -0.0824525
ltoes -1.51178 0 0
rfemur -6.5492 3.54059 26.1958
rtibia 30.9493 -0 0
rfoot -6.28833 4.23351 0.403125
rtoes -15.6735 0 0
lowerback -6.51765 0.626387 -0.577463
upperback -1.52892 0.824292 2.15609
thorax 2.04375 0.406265 2.61705
lowerneck -19.2325 -6.23315 -13.9379
upperneck 21.1913 -8.0479 13.9036
head 11.2285 -3.21339 6.20548
lclavicle 1.27791e-14 -1.24583e-14 -1.3901e-31
lhumerus -45.2027 -13.6675 94.9166
lradius 25.3423 -0 0
lwrist 5.83789 0 0
lhand -11.8706 -22.5282 -0.00870562
lfingers 7.12502 -0 0
lthumb 14.1801 6.9449 -0.0137467
rclavicle 1.27791e-14 -1.24583e-14 -1.3901e-31
rhumerus -37.8199 14.4056 -86.638
rradius 38.3492 -0 0
rwrist -19.2764 0 0
rhand -28.5812 -28.1802 -0.0345227
rfingers 7.12502 -0 0
rthumb -1.9472 -58.1439 -0.0335294
391
root 9.69655 17.0232 19.0226 7.02795 3.00787 -2.17103
lfemur -34.083 4.88289 -19.5819
ltibia 51.3658 -0 0
lfoot -9.51836 9.98286 -0.0837741
ltoes -1.33372 0 0
rfemur -6.10666 3.43579 26.0941
rtibia 30.9498 -0 0
rfoot -5.76913 4.33582 0.409623
rtoes -15.7471 0 0
lowerback -6.54743 0.679959 -0.586767
upperback -1.55659 0.897121 2.13137
thorax 2.02856 0.442923 2.60283
lowerneck -19.2222 -6.24184 -13.9523
upperneck 21.2172 -8.05616 13.8895
head 11.2374 -3.22029 6.20222
lclavicle 1.28356e-14 -1.21357e-14 -1.41237e-31
lhumerus -45.2318 -13.398 94.7645
lradius 25.193 -0 0
lwrist 5.56345 0 0
lhand -11.7697 -22.5395 -0.0088451
lfingers 7.12502 -0 0
lthumb 14.2774 6.92636 -0.0139669
rclavicle 1.28356e-14 -1.21357e-14 -1.41237e-31
rhumerus -37.904 14.2585 -86.7144
rradius 38.1476 -0 0
rwrist -19.1203 0 0
rhand -28.52 -28.2541 -0.0350758
rfingers 7.12502 -0 0
rthumb -1.88807 -58.2182 -0.0340666
392
root 9.71338 17.0216 19.17 7.05396 2.90068 -2.15498
lfemur -34.2257 4.81848 -19.669
ltibia 50.9144 -0 0
lfoot -9.35319 9.91737 -0.084907
ltoes -1.15566 0 0
rfemur -5.66399 3.33178 25.9915
rtibia 30.9503 -0 0
rfoot -5.24991 4.43818 0.415194
rtoes -15.8208 0 0
lowerback -6.57722 0.733526 -0.596099
upperback -1.58429 0.969939 2.10663
thorax 2.01337 0.479576 2.58861
lowerneck -19.2118 -6.25053 -13.9668
upperneck 21.2431 -8.06441 13.8754
head 11.2464 -3.22718 6.19896
lclavicle 1.28921e-14 -1.1813e-14 -1.43145e-31
lhumerus -45.2616 -13.1286 94.6125
lradius 25.0437 -0 0
lwrist 5.289 0 0
lhand -11.6687 -22.5508 -0.00896465
lfingers 7.12502 -0 0
lthumb 14.3746 6.90782 -0.0141557
rclavicle 1.28921e-14 -1.1813e-14 -1.43145e-31
rhumerus -37.9879 14.1114 -86.7905
rradius 37.9461 -0 0
rwrist -18.9641 0 0
rhand -28.4588 -28.328 -0.0355499
rfingers 7.12502 -0 0
rthumb -1.82893 -58.2926 -0.0345271
393
root 9.73021 17.02 19.3175 7.07994 2.79348 -2.13899
lfemur -34.3683 4.75386 -19.7559
ltibia 50.4631 -0 0
lfoot -9.18801 9.85188 -0.0858511
ltoes -0.977603 0 0
rfemur -5.22118 3.22856 25.8882
rtibia 30.9508 -0 0
rfoot -4.73069 4.54058 0.419838
rtoes -15.8944 0 0
lowerback -6.60702 0.787088 -0.605459
upperback -1.61203 1.04274 2.08184
thorax 1.99816 0.516226 2.57437
lowerneck -19.2015 -6.25921 -13.9813
upperneck 21.269 -8.07265 13.8613
head 11.2554 -3.23407 6.1957
lclavicle 1.29486e-14 -1.14904e-14 -1.44736e-31
lhumerus -45.2922 -12.8592 94.4604
lradius 24.8945 -0 0
lwrist 5.01456 0 0
lhand -11.5678 -22.5621 -0.00906429
lfingers 7.12502 -0 0
lthumb 14.4719 6.88929 -0.014313
rclavicle 1.29486e-14 -1.14904e-14 -1.44736e-31
rhumerus -38.0716 13.9641 -86.8663
rradius 37.7446 -0 0
rwrist -18.808 0 0
rhand -28.3975 -28.402 -0.0359449
rfingers 7.12502 -0 0
rthumb -1.7698 -58.3669 -0.0349108
394
root 9.74704 17.0185 19.4649 7.10589 2.68628 -2.12304
lfemur -34.5107 4.68902 -19.8426
ltibia 50.0117 -0 0
lfoot -9.02284 9.78638 -0.0866064
ltoes -0.799542 0 0
rfemur -4.77822 3.12615 25.7842
rtibia 30.9513 -0 0
rfoot -4.21145 4.64302 0.423553
rtoes -15.9681 0 0
lowerback -6.63683 0.840646 -0.614847
upperback -1.6398 1.11554 2.05702
thorax 1.98294 0.552872 2.56012
lowerneck -19.1912 -6.26789 -13.9958
upperneck 21.2949 -8.08089 13.8472
head 11.2643 -3.24097 6.19244
lclavicle 1.30051e-14 -1.11678e-14 -1.46008e-31
lhumerus -45.3234 -12.59 94.3084
lradius 24.7452 -0 0
lwrist 4.74011 0 0
lhand -11.4669 -22.5734 -0.00914399
lfingers 7.12502 -0 0
lthumb 14.5691 6.87075 -0.0144389
rclavicle 1.30051e-14 -1.11678e-14 -1.46008e-31
rhumerus -38.155 13.8168 -86.9419
rradius 37.543 -0 0
rwrist -18.6518 0 0
rhand -28.3363 -28.4759 -0.036261
rfingers 7.12502 -0 0
rthumb -1.71066 -58.4413 -0.0352178
395
root 9.76387 17.0169 19.6123 7.1318 2.57907 -2.10715
lfemur -34.6531 4.62397 -19.9292
ltibia 49.5604 -0 0
lfoot -8.85766 9.72088 -0.0871729
ltoes -0.621482 0 0
rfemur -4.33512 3.02453 25.6793
rtibia 30.9519 -0 0
rfoot -3.69221 4.7455 0.426339
rtoes -16.0417 0 0
lowerback -6.66664 0.894198 -0.624263
upperback -1.6676 1.18832 2.03216
thorax 1.96772 0.589514 2.54587
lowerneck -19.1808 -6.27657 -14.0102
upperneck 21.3208 -8.08912 13.8331
head 11.2733 -3.24786 6.18918
lclavicle 1.30616e-14 -1.08452e-14 -1.46962e-31
lhumerus -45.3553 -12.3208 94.1564
lradius 24.5959 -0 0
lwrist 4.46567 0 0
lhand -11.3659 -22.5847 -0.00920377
lfingers 7.12502 -0 0
lthumb 14.6663 6.85221 -0.0145333
rclavicle 1.30616e-14 -1.08452e-14 -1.46962e-31
rhumerus -38.2381 13.6693 -87.0172
rradius 37.3415 -0 0
rwrist -18.4957 0 0
rhand -28.2751 -28.5499 -0.0364981
rfingers 7.12502 -0 0
rthumb -1.65152 -58.5156 -0.035448
396
root 9.7807 17.0153 19.7598 7.15768 2.47185 -2.0913
lfemur -34.7953 4.55871 -20.0156
ltibia 49.1091 -0 0
lfoot -8.69249 9.65538 -0.0875506
ltoes -0.443421 0 0
rfemur -3.89188 2.92374 25.5736
rtibia 30.9524 -0 0
rfoot -3.17297 4.84799 0.428197
rtoes -16.1154 0 0
lowerback -6.69647 0.947746 -0.633707
upperback -1.69543 1.26109 2.00727
thorax 1.95248 0.626153 2.5316
lowerneck -19.1705 -6.28525 -14.0247
upperneck 21.3467 -8.09734 13.819
head 11.2822 -3.25475 6.18592
lclavicle 1.31181e-14 -1.05226e-14 -1.47599e-31
lhumerus -45.3879 -12.0517 94.0043
lradius 24.4467 -0 0
lwrist 4.19123 0 0
lhand -11.265 -22.596 -0.00924362
lfingers 7.12502 -0 0
lthumb 14.7636 6.83367 -0.0145962
rclavicle 1.31181e-14 -1.05226e-14 -1.47599e-31
rhumerus -38.321 13.5217 -87.0922
rradius 37.14 -0 0
rwrist -18.3396 0 0
rhand -28.2138 -28.6238 -0.0366561
rfingers 7.12502 -0 0
rthumb -1.59238 -58.59 -0.0356015
397
root 9.79753 17.0137 19.9072 7.18353 2.36463 -2.07551
lfemur -34.9374 4.49323 -20.1018
ltibia 48.6577 -0 0
lfoot -8.52731 9.58988 -0.0877394
ltoes -0.26536 0 0
rfemur -3.44849 2.82376 25.4672
rtibia 30.9529 -0 0
rfoot -2.65372 4.95049 0.429126
rtoes -16.189 0 0
lowerback -6.7263 1.00129 -0.643179
upperback -1.72329 1.33385 1.98234
thorax 1.93724 0.662787 2.51733
lowerneck -19.1602 -6.29392 -14.0392
upperneck 21.3726 -8.10556 13.8049
head 11.2912 -3.26164 6.18265
lclavicle 1.31746e-14 -1.02e-14 -1.47917e-31
lhumerus -45.4212 -11.7827 93.8523
lradius 24.2974 -0 0
lwrist 3.91678 0 0
lhand -11.164 -22.6073 -0.00926355
lfingers 7.12502 -0 0
lthumb 14.8608 6.81513 -0.0146277
rclavicle 1.31746e-14 -1.02e-14 -1.47917e-31
rhumerus -38.4036 13.374 -87.167
rradius 36.9384 -0 0
rwrist -18.1834 0 0
rhand -28.1526 -28.6977 -0.0367351
rfingers 7.12502 -0 0
rthumb -1.53325 -58.6643 -0.0356782
398
root 9.81437 17.0122 20.0546 7.20935 2.2574 -2.05976
lfemur -35.0794 4.42754 -20.1878
ltibia 48.2064 -0 0
lfoot -8.36213 9.52439 -0.0877394
ltoes -0.0872997 0 0
rfemur -3.00495 2.7246 25.3601
rtibia 30.9534 -0 0
rfoot -2.13448 5.05301 0.429126
rtoes -16.2627 0 0
lowerback -6.75614 1.05483 -0.652679
upperback -1.75119 1.40659 1.95738
thorax 1.92198 0.699418 2.50304
lowerneck -19.1498 -6.30259 -14.0537
upperneck 21.3986 -8.11377 13.7908
head 11.3002 -3.26853 6.17939
lclavicle 1.32311e-14 -9.87733e-15 -1.47917e-31
lhumerus -45.4552 -11.5138 93.7003
lradius 24.1481 -0 0
lwrist 3.64234 0 0
lhand -11.0631 -22.6187 -0.00926355
lfingers 7.12502 -0 0
lthumb 14.9581 6.79659 -0.0146277
rclavicle 1.32311e-14 -9.87733e-15 -1.47917e-31
rhumerus -38.486 13.2262 -87.2415
rradius 36.7369 -0 0
rwrist -18.0273 0 0
rhand -28.0914 -28.7717 -0.0367351
rfingers 7.12502 -0 0
rthumb -1.47411 -58.7387 -0.0356782
